# xmcd CD database file
#
# Track frame offsets:
#	150
#	9651
#	42277
#	71574
#	100828
#	114324
#	142245
#	164295
#	252121
#	282070
#
# Disc length: 3940 seconds
#
# Revision: 0
# Processed by: cddbd v1.5.1PL0 Copyright (c) Steve Scherf et al.
# Submitted via: CDex 1.51
#
DISCID=860f620a
DTITLE=mas - turn
DYEAR=2003
DGENRE=Jazz
TTITLE0=a beauty
TTITLE1=tick
TTITLE2=smood
TTITLE3=hokama bass
TTITLE4=cave's gynnek
TTITLE5=cael
TTITLE6=griph"miroque's edit"
TTITLE7=turn
TTITLE8=the key
TTITLE9=flat
EXTD=YEAR: 2003
EXTT0=
EXTT1=
EXTT2=
EXTT3=
EXTT4=
EXTT5=
EXTT6=
EXTT7=
EXTT8=
EXTT9=
PLAYORDER=
